<?xml version="1.0" standalone="no"?>
<!DOCTYPE svg PUBLIC "-//W3C//DTD SVG 20010904//EN"
 "http://www.w3.org/TR/2001/REC-SVG-20010904/DTD/svg10.dtd">
<svg version="1.0" xmlns="http://www.w3.org/2000/svg"
 width="600.000000pt" height="600.000000pt" viewBox="0 0 600.000000 600.000000"
 preserveAspectRatio="xMidYMid meet">
<metadata>
Created by potrace 1.11, written by Peter Selinger 2001-2013
</metadata>
<g transform="translate(0.000000,600.000000) scale(0.100000,-0.100000)"
fill="#000000" stroke="none">
<path d="M0 3000 l0 -3000 3000 0 3000 0 0 3000 0 3000 -3000 0 -3000 0 0
-3000z m4498 43 l2 -2533 -295 0 -295 0 0 280 c0 258 -6 320 -25 260 -11 -34
-119 -192 -171 -249 -154 -171 -383 -288 -659 -337 -137 -24 -434 -25 -561 -1
-673 124 -1132 693 -1229 1523 -18 151 -20 481 -4 640 41 415 166 783 358
1054 60 86 188 219 279 291 293 235 725 337 1112 263 347 -65 671 -270 847
-535 l48 -72 3 977 2 976 293 -2 292 -3 3 -2532z"/>
<path d="M2700 3739 c-334 -56 -610 -324 -733 -714 -66 -211 -91 -399 -91
-685 0 -239 10 -343 51 -529 125 -568 456 -881 932 -881 250 0 459 86 653 268
158 148 272 348 336 588 l37 139 0 430 0 430 -28 120 c-54 230 -137 390 -277
538 -101 107 -177 163 -303 222 -130 62 -239 85 -397 84 -69 -1 -150 -5 -180
-10z"/>
</g>
</svg>
