<svg xmlns="http://www.w3.org/2000/svg" xmlns:xlink="http://www.w3.org/1999/xlink" viewBox="0 0 288 72"><defs><path id="a" d="M0 0h288v72H0z"/></defs><clipPath id="b"><use xlink:href="#a" overflow="visible"/></clipPath><path clip-path="url(#b)" fill="#EB7E32" d="M155.5 35L141.4-9H-10.5v90h151.3l14.7-46z"/><g fill="#FFF" clip-path="url(#b)"><path d="M50.8 5.2l.1 46.5v10.9h-6.7v-6.4H44c-2.3 4.6-6.3 7.2-13 7.2-10.1 0-17-8.5-17-21.2 0-14 7-22.1 17.2-22.1 6.4 0 11 3.7 12.9 7.1h.2V5.1h6.5zm-6.9 33.4c0-.9-.3-2.6-.5-3.6-1.1-4.8-5.2-9.1-10.9-9.1C24.7 25.9 21 32.8 21 42c0 8.4 3.2 16 11.4 16 5.1 0 9.7-4 11.1-9.7.3-1 .5-2.1.5-3.3v-6.4zm19.7 4.9c0 9 5.7 14.5 14.9 14.5 5.4 0 11.8-2.7 14.6-3.9v6.5c-2.7 1.2-8.5 2.8-15.1 2.8-14.3 0-21.6-8.4-21.6-21s7.2-22.2 20.1-22.2c14.1 0 18.2 11.7 18.2 19.3 0 1.5.1 3.2 0 4H63.6zM88 38.3c.1-4.8-2.8-12.4-11.3-12.4-9.5 0-12.4 7.2-13 12.4H88zm14.5-17.4l8.8 23.4c1.4 3.8 3.1 8.5 4.2 11.5h.3c1.2-3.6 2.8-7.8 4.2-11.5l8.8-23.4h7.7l-16.3 41.6H111L95.1 20.9h7.4z"/></g><g clip-path="url(#b)"><path d="M171.9 7.3v55.5h-7.6V7.3h7.6zm57.2 51.2c-2.5 1.7-10.4 5.3-17.2 5.3-15.8 0-27.5-9.8-27.5-28.1 0-17.5 9.6-29.4 27-29.4 9.5 0 15.8 4.2 17.7 5.3v7.8c-3.3-3.8-10.9-7-16.9-7-13.1 0-19.7 8.4-19.7 23.1 0 13.7 6 22.2 19.7 22.2 8.3 0 14.1-4.2 16.9-7v7.8zm24.7-45.1h-19.7V7.3h46.8v6.1h-19.7v49.1h-7.3V13.4z"/></g></svg>