<?xml version="1.0" encoding="utf-8"?>
<!-- Generator: Adobe Illustrator 19.2.1, SVG Export Plug-In . SVG Version: 6.00 Build 0)  -->
<svg version="1.0" id="Layer_1" xmlns="http://www.w3.org/2000/svg" xmlns:xlink="http://www.w3.org/1999/xlink" x="0px" y="0px"
	 viewBox="0 0 288 72" enable-background="new 0 0 288 72" xml:space="preserve">
<g>
	<defs>
		<rect id="SVGID_1_" width="288" height="72"/>
	</defs>
	<clipPath id="SVGID_2_">
		<use xlink:href="#SVGID_1_"  overflow="visible"/>
	</clipPath>
	<polygon clip-path="url(#SVGID_2_)" fill="#EB7E32" points="155.5,35 155.5,35 155.5,35 141.4,-9 1.6,-9 -10.3,-9 -10.5,-9 
		-10.5,81 1.6,81 140.8,81 155.5,35 155.5,35 	"/>
	<g clip-path="url(#SVGID_2_)">
		<g>
			<path fill="#FFFFFF" d="M50.8,5.2l0.1,46.5c0,3.7,0,10.9,0,10.9h-6.7l0-6.4H44c-2.3,4.6-6.3,7.2-13,7.2c-10.1,0-17-8.5-17-21.2
				c0-14,7-22.1,17.2-22.1c6.4,0,11,3.7,12.9,7.1h0.2l0-22.1H50.8z M43.9,38.6c0-0.9-0.3-2.6-0.5-3.6c-1.1-4.8-5.2-9.1-10.9-9.1
				C24.7,25.9,21,32.8,21,42c0,8.4,3.2,16,11.4,16c5.1,0,9.7-4,11.1-9.7c0.3-1,0.5-2.1,0.5-3.3V38.6z"/>
			<path fill="#FFFFFF" d="M63.6,43.5c0,9,5.7,14.5,14.9,14.5c5.4,0,11.8-2.7,14.6-3.9v6.5c-2.7,1.2-8.5,2.8-15.1,2.8
				c-14.3,0-21.6-8.4-21.6-21c0-12.6,7.2-22.2,20.1-22.2c14.1,0,18.2,11.7,18.2,19.3c0,1.5,0.1,3.2,0,4L63.6,43.5z M88,38.3
				c0.1-4.8-2.8-12.4-11.3-12.4c-9.5,0-12.4,7.2-13,12.4H88z"/>
			<path fill="#FFFFFF" d="M102.5,20.9l8.8,23.4c1.4,3.8,3.1,8.5,4.2,11.5h0.3c1.2-3.6,2.8-7.8,4.2-11.5l8.8-23.4h7.7l-16.3,41.6
				h-9.2L95.1,20.9H102.5z"/>
		</g>
	</g>
	<g clip-path="url(#SVGID_2_)">
		<path d="M171.9,7.3v55.5h-7.6V7.3H171.9z"/>
		<path d="M229.1,58.5c-2.5,1.7-10.4,5.3-17.2,5.3c-15.8,0-27.5-9.8-27.5-28.1c0-17.5,9.6-29.4,27-29.4c9.5,0,15.8,4.2,17.7,5.3v7.8
			c-3.3-3.8-10.9-7-16.9-7c-13.1,0-19.7,8.4-19.7,23.1c0,13.7,6,22.2,19.7,22.2c8.3,0,14.1-4.2,16.9-7V58.5z"/>
		<path d="M253.8,13.4h-19.7V7.3h46.8v6.1h-19.7v49.1h-7.3V13.4z"/>
	</g>
</g>
</svg>
